<svg width="799" height="799" xmlns="http://www.w3.org/2000/svg" xmlns:xlink="http://www.w3.org/1999/xlink" xml:space="preserve" overflow="hidden"><defs><clipPath id="clip0"><rect x="525" y="902" width="799" height="799"/></clipPath></defs><g clip-path="url(#clip0)" transform="translate(-525 -902)"><path d="M525 953.464C525 925.041 548.041 902 576.464 902L1272.54 902C1300.96 902 1324 925.041 1324 953.464L1324 1649.54C1324 1677.96 1300.96 1701 1272.54 1701L576.464 1701C548.041 1701 525 1677.96 525 1649.54Z" fill="#D1DFE7" fill-rule="evenodd"/><g><g><g><path d="M590.435 673.272C590.435 671.533 596.428 655.495 613.323 612.026 615.505 606.412 617.661 601.365 618.114 600.812 618.708 600.083 621.136 599.866 626.866 600.027L634.796 600.249 638.783 610.456C658.272 660.352 662.828 672.916 661.854 674.089 661.065 675.039 659.315 675.239 653.329 675.061L645.797 674.838 643.044 667.167 640.292 659.497 626.208 659.708 612.125 659.921 609.239 667.379 606.353 674.838 598.394 675.062 590.435 675.286ZM630.682 631.475 626.296 618.34 622.112 630.886C619.81 637.787 617.924 643.698 617.921 644.021 617.918 644.345 621.775 644.61 626.492 644.61L635.069 644.61Z" fill="#233A46" transform="matrix(1 0 0 1.00254 520.13 894.289)"/><path d="M520.646 673.494C519.617 670.774 519.597 603.218 520.624 601.299 521.434 599.786 522.126 599.737 538.873 599.988 555.711 600.24 556.423 600.316 560.635 602.291 566.714 605.143 570.338 608.587 573.124 614.163 575.122 618.161 575.517 619.878 575.517 624.575 575.517 632.408 573.776 636.965 568.917 641.853 566.717 644.066 564.046 646.421 562.982 647.086L561.048 648.297 569.232 659.605C574.284 666.586 577.428 671.664 577.448 672.876 577.48 674.816 577.395 674.841 570.138 675.065 565.172 675.218 562.419 674.979 561.63 674.324 560.989 673.792 556.977 668.35 552.715 662.23 545.232 651.484 544.854 651.085 541.702 650.581 536.546 649.757 536.33 650.249 536.083 663.337L535.866 674.838 528.596 675.065C521.643 675.28 521.295 675.211 520.646 673.494ZM555.345 634.181C558.49 632.121 560.075 629.168 560.075 625.374 560.075 621.571 558.49 618.628 555.324 616.552 553.643 615.449 551.52 615.167 544.932 615.167L536.652 615.167 536.429 624.543C536.307 629.7 536.4 634.421 536.635 635.035 537.29 636.741 552.497 636.047 555.345 634.181Z" fill="#233A46" transform="matrix(1 0 0 1.00254 520.13 894.289)"/><path d="M453.018 673.229C451.987 670.518 451.987 604.569 453.018 601.859L453.788 599.832 476.376 600.041 498.964 600.249 498.964 607.708 498.964 615.167 484.046 615.559 469.129 615.952 469.129 622.626 469.129 629.3 480.852 629.518C487.863 629.648 492.991 630.082 493.61 630.595 494.304 631.171 494.646 633.46 494.646 637.544 494.646 641.627 494.304 643.916 493.61 644.492 492.991 645.006 487.863 645.439 480.852 645.57L469.129 645.788 468.902 652.641 468.675 659.494 484.212 659.708 499.749 659.921 499.749 667.379 499.749 674.838 476.769 675.047 453.788 675.255Z" fill="#233A46" transform="matrix(1 0 0 1.00254 520.13 894.289)"/><path d="M353.346 673.712C352.114 671.41 352.237 602.038 353.476 600.799 354.51 599.764 366.454 599.482 367.934 600.457 368.416 600.774 373.836 609.078 379.98 618.909L391.15 636.784 402.367 618.516 413.585 600.249 420.432 600.021C424.803 599.875 427.676 600.123 428.378 600.706 429.878 601.951 430.03 672.795 428.536 674.289 427.193 675.633 415.8 675.547 414.67 674.185 414.096 673.494 413.73 666.094 413.592 652.397 413.471 640.428 413.079 631.702 412.664 631.767 412.269 631.829 407.618 638.542 402.328 646.685 394.374 658.929 392.392 661.491 390.876 661.491 389.37 661.491 387.291 658.868 379.229 646.794 373.831 638.711 369.15 632.087 368.825 632.073 368.501 632.059 368.236 641.34 368.236 652.697 368.236 667.711 367.979 673.603 367.294 674.289 366.723 674.86 363.95 675.231 360.255 675.231 355.032 675.231 354.042 675.014 353.346 673.712Z" fill="#233A46" transform="matrix(1 0 0 1.00254 520.13 894.289)"/><path d="M314.958 674.188C314.286 673.379 314.099 663.461 314.249 636.668L314.453 600.249 321.203 600.024C326.251 599.856 328.184 600.076 328.867 600.899 329.539 601.709 329.725 611.627 329.576 638.419L329.371 674.838 322.621 675.064C317.574 675.232 315.641 675.011 314.958 674.188Z" fill="#233A46" transform="matrix(1 0 0 1.00254 520.13 894.289)"/><path d="M229.624 674.25C229.417 673.709 229.34 656.839 229.452 636.759L229.657 600.249 236.127 600.021C246.12 599.669 245.678 598.977 245.931 615.381L246.145 629.3 260.278 629.3 274.411 629.3 274.803 614.774 275.196 600.249 282.144 600.021C286.591 599.875 289.487 600.122 290.191 600.706 291.105 601.464 291.292 607.644 291.292 637.183 291.292 656.743 291.077 673.306 290.815 673.989 290.182 675.639 277.05 675.815 275.703 674.191 275.167 673.545 274.759 667.834 274.626 659.077L274.411 645.003 260.278 645.003 246.145 645.003 245.93 659.077C245.797 667.834 245.389 673.545 244.853 674.191 243.676 675.61 230.165 675.661 229.624 674.25Z" fill="#233A46" transform="matrix(1 0 0 1.00254 520.13 894.289)"/><path d="M173.792 675.686C158.914 672.078 147.185 659.329 144.398 643.739 141.446 627.218 151.126 609.158 166.967 601.635 172.459 599.027 173.906 598.687 180.664 598.416 189.46 598.062 195.34 599.417 201.198 603.144 205.751 606.042 211.991 612.825 211.991 614.876 211.991 616.637 203.252 622.626 200.681 622.626 199.753 622.626 198.111 621.467 196.914 619.966 191.967 613.766 181.007 611.976 172.859 616.037 164.844 620.031 160.498 628.54 161.123 639.014 161.872 651.556 169.716 660.082 181.262 660.908 187.655 661.366 193.421 659.248 197.055 655.111 198.334 653.653 199.79 652.462 200.291 652.462 201.661 652.462 209.151 656.906 210.74 658.662 211.615 659.628 211.946 660.789 211.63 661.784 210.962 663.889 203.134 670.986 199.349 672.916 192.365 676.479 181.787 677.626 173.792 675.686Z" fill="#233A46" transform="matrix(1 0 0 1.00254 520.13 894.289)"/><path d="M430.421 551.02C428.178 548.777 429.993 541.18 434.249 534.994 438.175 529.288 442.567 527.64 453.867 527.63 462.76 527.622 462.987 527.578 464.941 525.463 470.304 519.655 475.885 509.169 475.945 504.783 476.005 500.452 474.253 498.271 466.907 493.533 458.6 488.173 446.934 475.997 443.58 469.184 441.213 464.378 438.482 452.329 439.539 451.364 440.562 450.429 450.326 447.528 456.184 446.418 464.895 444.767 474.177 444.133 480.703 444.745L486.491 445.287 488.929 449.356C490.27 451.595 493.518 455.984 496.147 459.112L500.927 464.798 500.927 471.408C500.927 480.028 502.739 485.738 508.487 495.24 514.767 505.618 514.745 505.779 505.659 515.895 501.611 520.402 493.708 529.873 488.096 536.944 480.907 546 477.128 550.117 475.302 550.88 471.812 552.338 431.864 552.463 430.421 551.02Z" fill="#233A46" transform="matrix(-1 0 0 1.00254 1344.32 894.289)"/><path d="M191.212 550.901C188.003 548.555 191.877 537.438 197.753 532.129 202.091 528.21 205.792 527.37 215.732 528.047L223.916 528.605 228.117 524.162C235.66 516.186 240.208 509.38 246.686 496.375 250.272 489.177 253.438 483.739 253.921 483.946 263.536 488.053 265.498 488.628 271.074 488.974 274.421 489.181 277.15 489.042 277.14 488.662 277.13 488.282 274.039 486.986 270.27 485.781 258.136 481.901 246.587 473.609 235.949 461.144 233.235 457.961 229.715 452.888 228.128 449.868 225.146 444.193 221.413 431.275 221.413 426.63 221.413 425.173 221.228 423.982 221.001 423.982 220.774 423.982 218.213 425.181 215.308 426.647 208.091 430.289 202.765 435.097 202.116 438.555 201.175 443.573 193.981 447.129 187.858 445.601 184.823 444.843 180.886 441.676 178.505 438.08 176.457 434.985 174.306 426.101 174.305 420.729L174.304 417.868 177.641 418.576C179.476 418.965 182.657 420.049 184.709 420.983L188.44 422.682 190.402 420.84C195.311 416.228 190.392 409.064 182.316 409.064 180.313 409.064 178.209 409.76 176.308 411.05 173.998 412.618 172.814 412.929 170.683 412.529 164.84 411.433 160.175 406.178 160.173 400.688 160.172 398.707 159.628 397.865 157.506 396.554 154.371 394.616 152.32 390.731 152.32 386.731 152.32 382.821 156.651 378.342 168.685 369.807 176.351 364.369 178.18 362.696 178.557 360.777 179.366 356.656 181.822 353.674 188.497 348.704 194.905 343.934 195.031 343.774 197.112 337.767 200.065 329.246 202.163 325.417 205.96 321.623 209.892 317.692 215.36 314.983 221.338 314.004 226.209 313.207 241.827 313.007 241.827 313.744 241.827 314 241.167 315.149 240.359 316.295 239.552 317.442 238.649 319.164 238.351 320.123L237.81 321.866 242.11 319.965C252.641 315.308 265.569 314.095 276.651 316.725 301.349 322.586 330.111 345.291 344.476 370.268 346.054 373.012 347.461 375.141 347.601 375.001 348.038 374.565 342.625 360.939 339.742 355.215 335.948 347.68 330.809 341.091 323.109 333.887L316.544 327.745 317.646 323.062C322.453 302.625 312.545 281.106 297.371 279.026 292.327 278.335 288.027 279.858 283.481 283.945 276.717 290.027 275.236 294.968 279.514 297.18 280.81 297.85 281.87 298.912 281.87 299.54 281.87 301.281 276.092 303.854 272.182 303.854 264.175 303.854 259.838 299.752 257.77 290.224L256.472 284.243 252.737 283.748C246.737 282.952 239.471 276.655 239.471 272.252 239.471 268.709 241.434 265.895 254.629 250.516 263.54 240.13 265.731 237.081 266.946 233.377 268.174 229.634 269.437 227.899 274.404 223.124 279.741 217.994 280.559 216.81 282.002 212.132 285.209 201.731 291.661 191.36 299.783 183.547 305.788 177.772 310.274 174.97 316.362 173.193 324.651 170.774 324.689 171.305 316.792 179.211 308.533 187.478 302.489 196.365 299.442 204.719 298.29 207.875 297.494 210.604 297.672 210.782 297.85 210.959 299.438 210.912 301.202 210.675 304.166 210.278 304.592 209.9 306.805 205.711 313.855 192.363 321.452 183.432 333.899 173.855 343.097 166.777 350.83 162.633 358.583 160.624 363.557 159.335 379.229 158.873 379.229 160.016 379.229 160.362 375.96 162.746 371.966 165.311 357.103 174.86 345.348 185.541 337.441 196.681 331.774 204.665 325.838 218.998 325.838 224.697L325.838 227.031 329.96 223.397C332.228 221.399 336.999 218.309 340.565 216.532 346.385 213.63 347.629 213.302 352.734 213.316 359 213.335 368.236 215.578 368.236 217.08 368.236 218.654 364.025 223.98 359.916 227.603 357.799 229.469 352.578 232.685 348.314 234.749L340.561 238.5 343.603 239.484C349.302 241.328 357.569 246.905 364.681 253.705 375.984 264.51 384.111 276.797 391.08 293.616 394.113 300.934 394.651 302.914 393.965 304.216 391.034 309.772 378.257 323.619 371.746 328.295 367.137 331.605 368.262 332.004 374.64 329.321 391.445 322.255 411.004 300.685 419.218 280.162 423.236 270.125 424.336 263.854 424.356 250.856 424.372 240.966 424.084 238.01 422.563 232.405 420.831 226.025 416.209 215.753 410.26 205.054 407.091 199.356 406.572 194.386 408.868 191.735 413.179 186.756 442.247 165.984 458.447 156.307 476.637 145.439 503.879 133.368 522.173 128.068 541.696 122.412 565.902 118.091 591.232 115.741 607.973 114.188 638.429 114.6 650.106 116.537 661.707 118.462 672.166 121.081 671.864 121.985 671.714 122.435 669.319 123.227 666.541 123.745 641.109 128.483 612.34 154.333 604.595 179.407 601.104 190.706 601.7 202.17 606.569 217.417 607.616 220.694 608.477 223.6 608.483 223.873 608.488 224.145 602.752 224.538 595.734 224.745 585.362 225.051 581.948 225.452 577.48 226.891 560.71 232.291 548.248 243.023 540.53 258.708 535.461 269.009 534.551 273.199 534.244 287.655 534.098 294.509 533.807 300.286 533.598 300.495 533.389 300.704 530.988 300.15 528.261 299.264 517.697 295.831 503.22 294.961 492.932 297.142 475.653 300.804 460.007 312.823 452.083 328.52 450.193 332.264 446.752 340.945 446.752 341.969 446.752 342.367 452.523 343.155 466.773 344.702 492.82 347.53 515.171 351.824 524.874 355.865 530.425 358.176 545.714 368.255 553.14 374.497 556.594 377.401 565.288 384.865 572.458 391.084 586.266 403.06 594.602 408.318 604.116 411.057 617.343 414.864 629.091 407.29 630.256 394.203 631.282 382.674 621.22 368.906 599.809 352.547 586.791 342.6 579.547 332.099 576.617 318.927 574.996 311.644 575.443 300.68 577.619 294.332 581.327 283.516 590.543 272.767 599.994 268.236 615.813 260.651 631.595 263.401 649.714 276.9 657.679 282.835 658.743 283.924 658.743 286.153 658.743 288.898 653.218 293.506 649.134 294.168L645.788 294.71 648.46 295.41 651.133 296.11 649.418 297.822C647.941 299.298 646.86 299.529 641.642 299.488 634.168 299.43 628.393 297.452 621.618 292.629 615.53 288.295 613.881 287.76 611.084 289.21 607.534 291.05 602.902 296.018 601.246 299.761 598.056 306.973 599.732 319.318 604.806 325.983 606.225 327.847 611.587 332.624 616.721 336.598 627.736 345.125 639.551 356.578 643.981 363.025 655.195 379.344 657.103 397.487 649.169 412.372 640.655 428.345 623.113 436.925 605.296 433.83 593.249 431.739 582.894 425.871 564.988 410.99 559.412 406.356 555.089 403.184 555.378 403.938 555.668 404.693 558.055 412.427 560.683 421.124 566.454 440.222 569.604 448.225 574.345 455.832 578.664 462.761 582.416 466.166 592.024 471.877 603.076 478.445 603.193 478.597 605.272 489.15 606.251 494.116 608.83 505.775 611.003 515.06 615.893 535.95 616.395 540.966 614.052 545.558 610.797 551.936 610.701 551.956 582.442 551.959 552.183 551.963 553.159 552.346 556.827 541.904 558.924 535.933 562.557 531.475 567.13 529.262 569.884 527.929 572.009 527.622 578.513 527.622L586.509 527.622 586.509 525.634C586.509 522.802 582.109 511.655 578.591 505.574 574.012 497.659 569.185 492.767 562.805 489.575 559.748 488.046 556.811 486.794 556.279 486.794 553.576 486.794 539.368 481.427 530.12 476.913 520.928 472.425 518.85 471.028 512.945 465.364 500.743 453.659 490.396 439.013 478.998 417.308 474.716 409.155 469.826 402.216 468.968 403.074 468.509 403.533 473.865 416.842 478.867 427.672 481.5 433.372 483.653 438.142 483.651 438.271 483.65 438.402 477.732 438.541 470.5 438.583 449.577 438.702 440.439 440.609 419.936 449.135 412.572 452.197 406.466 454.591 406.368 454.456 406.27 454.321 405.762 452.224 405.238 449.796 404.043 444.257 401.379 440.04 393.543 431.288 390.138 427.486 386.055 422.669 384.469 420.585 382.882 418.501 381.584 416.912 381.584 417.054 381.584 417.196 382.939 420.868 384.595 425.213 386.252 429.559 390.223 437.506 393.422 442.873 398.813 451.923 399.209 452.888 398.868 456.169 397.947 465.01 398.574 497.726 399.853 507.601 400.983 516.32 401.635 525.865 401.305 528.844 401.254 529.3 399.475 532.348 397.349 535.618 395.224 538.887 392.572 543.364 391.457 545.566 388.199 551.994 388.35 551.962 361.265 551.962 340.302 551.962 337.584 551.818 336.413 550.648 334.746 548.98 335.225 545.649 338.009 539.571 342.242 530.323 346.161 528.112 358.779 527.852 363.725 527.75 368.229 527.492 368.789 527.277 370.277 526.706 370.014 523.337 367.929 516.238 364.012 502.907 351.479 475.706 346.182 469.04 343.784 466.022 343.777 466.02 344.347 468.354 344.663 469.644 345.397 472.068 345.979 473.742 346.562 475.415 347.037 476.917 347.037 477.079 347.037 477.833 339.043 477.249 335.019 476.201 328.17 474.417 322.859 471.377 317.347 466.084 309.074 458.14 305.35 451.751 300.81 437.715 297.471 427.392 290.496 410.635 289.539 410.635 289.384 410.635 290.211 414.433 291.378 419.076 292.545 423.718 293.879 431.957 294.343 437.383 295.322 448.854 296.248 451.888 301.014 459.255 307.725 469.629 315.421 476.419 324.179 479.695 326.819 480.682 328.979 481.76 328.979 482.09 328.979 483.589 322.683 485.529 316.809 485.84 308.131 486.301 302.302 485.054 294.04 480.969 285.794 476.894 279.346 471.427 274.86 464.709L271.663 459.92 271.663 463.199C271.663 473.167 283.347 485.468 297.025 489.901 298.666 490.434 299.903 491.166 299.773 491.53 299.305 492.833 244.828 550.02 243.15 550.969 240.56 552.432 193.222 552.371 191.212 550.901ZM254.32 442.984C254.805 439.832 256.264 433.472 257.565 428.851 260.714 417.661 261.274 410.765 259.525 404.708 257.868 398.971 254.118 391.763 251.52 389.322L249.582 387.501 251.545 391.738C254.938 399.062 255.598 405.185 254.109 415.533 252.985 423.35 252.205 450.016 253.129 449.042 253.3 448.862 253.836 446.136 254.32 442.984ZM337.169 427.908C337.215 413.051 329.93 397.456 317.18 385.117 312.5 380.588 312.388 380.529 314.277 383.589 322.243 396.495 330.982 418.949 333.388 432.698L334.798 440.752 335.971 438.06C336.735 436.31 337.154 432.756 337.169 427.908ZM168.346 390.971C169.821 389.556 169.811 389.52 167.82 389.02 165.048 388.325 163.251 388.78 162.218 390.439 160.307 393.509 165.255 393.938 168.346 390.971ZM203.943 367.872C206.211 366.817 208.065 365.623 208.065 365.219 208.065 363.258 194.881 361.789 193.342 363.769 192.965 364.254 192.961 367.131 192.942 368.04 192.906 369.73 192.767 369.806 196.166 369.799 198.381 369.794 201.445 369.036 203.943 367.872ZM255.997 366.666C257.504 366.666 262.567 361.401 263.917 358.429 266.682 352.343 265.324 344.603 260.794 340.625 258.32 338.452 257.677 338.258 254.309 338.657 250.193 339.143 245.315 341.341 243.231 343.645 241.792 345.236 239.167 350.963 239.876 350.963 240.11 350.963 242.401 349.903 244.968 348.608 250.427 345.852 254.495 345.573 256.725 347.803 260.203 351.28 259.773 357.01 255.612 362.68 252.536 366.869 252.192 367.86 254.061 367.143 254.744 366.88 255.615 366.666 255.997 366.666ZM521.832 275.382C516.841 262.122 509.138 250.164 498.419 239.034 494.168 234.621 488.135 229.244 485.013 227.086 472.564 218.484 439.727 202.505 434.655 202.583 434.183 202.59 436.8 204.203 440.47 206.168 447.993 210.194 461.559 218.645 467.754 223.165 485.412 236.049 506.928 257.708 519.318 275.071 521.37 277.946 523.192 280.299 523.366 280.299 523.54 280.299 522.85 278.087 521.832 275.382ZM636.215 274.697C634.508 272.988 628.907 271.747 628.907 273.077 628.907 275.17 636.684 278.637 637.44 276.881 637.599 276.512 637.048 275.529 636.215 274.697ZM251.383 271.934C253.121 270.361 253.193 269.619 251.664 269.032 250.336 268.523 248.108 270.452 248.108 272.111 248.108 273.612 249.619 273.531 251.383 271.934ZM291.244 245.377C294.751 244.139 299.143 241.333 299.143 240.329 299.143 239.384 295.376 237.901 292.975 237.901 290.376 237.901 288.845 238.96 286.184 242.595 284.348 245.104 284.299 245.37 285.58 245.877 287.567 246.662 287.613 246.658 291.244 245.377ZM589.649 205.631C584.773 201.385 572.994 193.992 564.132 189.615 550.528 182.896 531.716 177.809 513.097 175.814 496.628 174.049 472.732 175.948 455.194 180.414 449.924 181.756 450.06 181.763 481.104 181.774 509.977 181.784 513.072 181.918 522.473 183.562 534.682 185.697 541.902 187.507 552.355 191.05 561.37 194.107 580.934 202.296 587.294 205.675 592.757 208.578 593.029 208.573 589.649 205.631Z" fill="#233A46" transform="matrix(-1 0 0 1.00254 1344.32 894.289)"/><path d="M657.501 299.815C654.479 298.387 650.322 296.601 648.264 295.845 646.205 295.089 644.643 294.101 644.791 293.649 645.311 292.061 650.757 292.289 654.276 294.047 658.442 296.126 664.745 301.427 663.732 301.999 663.328 302.226 660.524 301.243 657.501 299.815Z" fill="#233A46" transform="matrix(-1 0 0 1.00254 1344.32 894.289)"/></g></g></g></g></svg>